<?xml version="1.0" encoding="UTF-8"?>
<svg width="72px" height="72px" viewBox="0 0 72 72" version="1.1" xmlns="http://www.w3.org/2000/svg" xmlns:xlink="http://www.w3.org/1999/xlink">
    <!-- Generator: Sketch 64 (93537) - https://sketch.com -->
    <title>logo--sign-in--google</title>
    <desc>Created with Sketch.</desc>
    <defs>
        <path d="M60.8048,0 C62.4924364,0 63.8695504,1.30331901 63.9912557,2.95672111 L64,3.1952 L64,60.8048 C64,62.4924364 62.696681,63.8695504 61.0432789,63.9912557 L60.8048,64 L3.1952,64 C1.50756364,64 0.130449587,62.696681 0.00874425244,61.0432789 L0,60.8048 L0,3.1952 C0,1.50756364 1.30331901,0.130449587 2.95672111,0.00874425244 L3.1952,0 L60.8048,0 Z" id="path-1"></path>
        <filter x="-10.9%" y="-7.8%" width="121.9%" height="121.9%" filterUnits="objectBoundingBox" id="filter-2">
            <feOffset dx="0" dy="2" in="SourceAlpha" result="shadowOffsetOuter1"></feOffset>
            <feGaussianBlur stdDeviation="2" in="shadowOffsetOuter1" result="shadowBlurOuter1"></feGaussianBlur>
            <feColorMatrix values="0 0 0 0 0   0 0 0 0 0   0 0 0 0 0  0 0 0 0.24 0" type="matrix" in="shadowBlurOuter1"></feColorMatrix>
        </filter>
    </defs>
    <g id="Main" stroke="none" stroke-width="1" fill="none" fill-rule="evenodd">
        <g id="Desktop---Sign-In" transform="translate(-716.000000, -681.000000)">
            <g id="logo--sign-in--google" transform="translate(719.000000, 683.000000)">
                <g id="Group" transform="translate(0.909091, 0.272727)">
                    <g id="Clip-3">
                        <use fill="black" fill-opacity="1" filter="url(#filter-2)" xlink:href="#path-1"></use>
                        <use fill="#FFFFFF" fill-rule="evenodd" xlink:href="#path-1"></use>
                    </g>
                    <g id="logo--google" transform="translate(31.967273, 29.934545)">
                        <path d="M14.6298182,0.115636364 C14.8049091,1.07945455 14.8981818,2.08254545 14.8981818,3.12818182 C14.8981818,7.425 13.422392,11.0725909 10.8481508,13.6259258 L10.5061818,13.9527273 L5.74763636,13.9527273 L5.74763636,10.2561818 C7.1957013,9.28675325 8.1936744,7.87287662 8.60267824,6.20190545 L8.68654545,5.81181818 L0.76,5.81181818 L0.76,0.115636364 L14.6298182,0.115636364 Z" id="Clip-6" fill="#318AF5"></path>
                        <path d="M-7.48072727,5.59090909 C-6.32218182,9.07145455 -3.07563636,11.6618182 0.76,11.6618182 C2.5765,11.6618182 4.1455,11.2231932 5.41028125,10.469464 L5.74763636,10.2561818 L10.5061818,13.9527273 C8.06963636,16.2010909 4.73636364,17.52 0.76,17.52 C-4.82741176,17.52 -9.68414187,14.4107491 -12.1808464,9.82757607 L-12.4012727,9.40690909 L-12.4012727,5.59090909 L-7.48072727,5.59090909 Z" id="Clip-9" fill="#3DA751"></path>
                        <path d="M-7.48072727,-3.82145455 L-7.48072727,-0.00545454545 C-7.77527273,0.878181818 -7.94218182,1.82236364 -7.94218182,2.79272727 C-7.94218182,3.60136364 -7.82627273,4.39181818 -7.61718182,5.14420455 L-7.48072727,5.59090909 L-12.4012727,9.40690909 C-13.3978182,7.41872727 -13.9672727,5.16872727 -13.9672727,2.79272727 C-13.9672727,0.614727273 -13.4887727,-1.45739773 -12.641429,-3.31903314 L-12.4012727,-3.82145455 L-7.48072727,-3.82145455 Z" id="Clip-12" fill="#FDB900"></path>
                        <path d="M0.76,-11.9345455 C4.54077922,-11.9345455 7.74419295,-10.6106122 10.244435,-8.43204523 L10.6141818,-8.09890909 L6.38909091,-3.87545455 C4.864,-5.33345455 2.92163636,-6.07636364 0.76,-6.07636364 C-2.94778182,-6.07636364 -6.10509091,-3.65581273 -7.35796824,-0.350478848 L-7.48072727,-0.00545454545 L-12.4012727,-3.82145455 C-9.97781818,-8.634 -4.99672727,-11.9345455 0.76,-11.9345455 Z" id="Clip-15" fill="#EA3E36"></path>
                    </g>
                </g>
            </g>
        </g>
    </g>
</svg>